<svg width="16" height="14" viewBox="0 0 16 14" fill="none" xmlns="http://www.w3.org/2000/svg">
<path d="M11.3332 13V11.6667C11.3332 10.9594 11.0522 10.2811 10.5521 9.78105C10.052 9.28095 9.37375 9 8.6665 9H3.33317C2.62593 9 1.94765 9.28095 1.44755 9.78105C0.947456 10.2811 0.666504 10.9594 0.666504 11.6667V13" stroke="#082F3B" stroke-linecap="round" stroke-linejoin="round"/>
<path d="M5.99967 6.33333C7.47243 6.33333 8.66634 5.13943 8.66634 3.66667C8.66634 2.19391 7.47243 1 5.99967 1C4.52692 1 3.33301 2.19391 3.33301 3.66667C3.33301 5.13943 4.52692 6.33333 5.99967 6.33333Z" stroke="#082F3B" stroke-linecap="round" stroke-linejoin="round"/>
<path d="M15.333 13V11.6667C15.3326 11.0758 15.1359 10.5019 14.7739 10.0349C14.4119 9.56791 13.9051 9.23438 13.333 9.08667" stroke="#082F3B" stroke-linecap="round" stroke-linejoin="round"/>
<path d="M10.6665 1.08667C11.2401 1.23354 11.7485 1.56714 12.1116 2.03488C12.4747 2.50262 12.6717 3.07789 12.6717 3.67C12.6717 4.26212 12.4747 4.83739 12.1116 5.30513C11.7485 5.77287 11.2401 6.10647 10.6665 6.25334" stroke="#082F3B" stroke-linecap="round" stroke-linejoin="round"/>
</svg>
