<svg width="79" height="79" viewBox="0 0 79 79" fill="none" xmlns="http://www.w3.org/2000/svg">
<rect width="79" height="79" rx="10" fill="#082F3B"/>
<path d="M31.5476 21.6069V27.5713C31.5476 28.6259 31.1287 29.6373 30.383 30.383C29.6373 31.1287 28.6259 31.5476 27.5713 31.5476H21.6069M57.3933 31.5476H51.4289C50.3743 31.5476 49.3629 31.1287 48.6172 30.383C47.8715 29.6373 47.4526 28.6259 47.4526 27.5713V21.6069M47.4526 57.3933V51.4289C47.4526 50.3743 47.8715 49.3629 48.6172 48.6172C49.3629 47.8715 50.3743 47.4526 51.4289 47.4526H57.3933M21.6069 47.4526H27.5713C28.6259 47.4526 29.6373 47.8715 30.383 48.6172C31.1287 49.3629 31.5476 50.3743 31.5476 51.4289V57.3933" stroke="white" stroke-width="3" stroke-linecap="round" stroke-linejoin="round"/>
</svg>
