<svg width="14" height="14" viewBox="0 0 14 14" fill="none" xmlns="http://www.w3.org/2000/svg">
<path d="M11 5C12.1046 5 13 4.10457 13 3C13 1.89543 12.1046 1 11 1C9.89543 1 9 1.89543 9 3C9 4.10457 9.89543 5 11 5Z" stroke="#082F3B" stroke-linecap="round" stroke-linejoin="round"/>
<path d="M3 13C4.10457 13 5 12.1046 5 11C5 9.89543 4.10457 9 3 9C1.89543 9 1 9.89543 1 11C1 12.1046 1.89543 13 3 13Z" stroke="#082F3B" stroke-linecap="round" stroke-linejoin="round"/>
<path d="M3.3334 9.00011L4.33341 5.00012L9.00008 9.00012L10 5.00011" stroke="#082F3B" stroke-linecap="round" stroke-linejoin="round"/>
</svg>
